<svg width="22" height="23" viewBox="0 0 22 23" fill="none" xmlns="http://www.w3.org/2000/svg">
<path d="M10.9999 3.70833C6.6967 3.70833 3.20825 7.19678 3.20825 11.5C3.20825 15.8032 6.6967 19.2917 10.9999 19.2917C15.0494 19.2917 18.3769 16.2028 18.7557 12.2523C18.7733 12.0685 18.6789 11.892 18.5161 11.8047C18.3533 11.7174 18.1541 11.7363 18.0107 11.8527C17.2226 12.4921 16.2191 12.875 15.1249 12.875C12.5936 12.875 10.5416 10.823 10.5416 8.29166C10.5416 6.78823 11.265 5.45388 12.3846 4.61736C12.5327 4.50675 12.5998 4.31806 12.5549 4.13881C12.51 3.95955 12.3618 3.8248 12.1791 3.79705C11.7943 3.7386 11.4005 3.70833 10.9999 3.70833Z" fill="#555555"/>
</svg>
